<?xml version="1.0" encoding="utf-8"?>
<!-- Generator: Adobe Illustrator 16.0.0, SVG Export Plug-In . SVG Version: 6.00 Build 0)  -->
<!DOCTYPE svg PUBLIC "-//W3C//DTD SVG 1.1//EN" "http://www.w3.org/Graphics/SVG/1.1/DTD/svg11.dtd">
<svg version="1.1" id="Layer_1" xmlns="http://www.w3.org/2000/svg" xmlns:xlink="http://www.w3.org/1999/xlink" x="0px" y="0px"
	 width="148px" height="150px" viewBox="0 0 148 150" style="enable-background:new 0 0 148 150;" xml:space="preserve">
<style type="text/css">
<![CDATA[
	.st0{display:inline;fill:none;stroke:#5D5E5E;stroke-width:4;stroke-miterlimit:10;}
	.st1{display:inline;fill:#5D5E5E;}
	.st2{display:inline;fill:#92D5D6;}
	.st3{fill:#5D5E5E;}
	.st4{fill:#5E5E5E;}
	.st5{display:inline;fill:none;stroke:#5D5E5E;stroke-width:2;stroke-miterlimit:10;}
	.st6{display:none;fill:none;stroke:#5D5E5E;stroke-width:2;stroke-miterlimit:10;}
	.st7{fill:none;stroke:#5D5E5E;stroke-width:2;stroke-miterlimit:10;stroke-dasharray:5.8889,5.8889;}
	.st8{display:inline;}
	.st9{display:inline;fill:#D6BC92;}
	.st10{display:none;}
	.st11{display:none;fill:#5D5E5E;}
]]>
</style>
<g id="XMLID_224_" class="st10">
	<rect id="XMLID_225_" x="-231" y="322" class="st2" width="150" height="150"/>
	<rect id="XMLID_255_" x="-231" y="472" class="st9" width="150" height="150"/>
</g>
<path id="XMLID_8_" class="st11" d="M-137.9,395.7l-1.4,3.8h-3.7l3.1,2.4l-1.4,4.2l3.5-2.6l3.5,2.6l-1.4-4.2l3.1-2.4h-3.8
	L-137.9,395.7z M-154.4,393.1l3.5-2.6l3.5,2.6l-1.4-4.2l3.1-2.4h-3.8l-1.4-3.8l-1.4,3.8h-3.7l3.1,2.4L-154.4,393.1z M-127.5,373.7
	h-5.2l-1.9-5.2l-1.9,5.2h-5.2l4.2,3.2l-1.9,5.8l4.9-3.6l4.9,3.6l-1.9-5.8L-127.5,373.7z M-165.1,386.6c0-6.8,2.4-13.1,6.4-18
	c-14.5,1.3-25.8,13.6-25.8,28.4c0,15.8,12.8,28.6,28.5,28.6c8.9,0,18.1-4.1,23.3-10.5c-0.9,0.1-3,0.1-3.9,0.1
	C-152.3,415.1-165.1,402.3-165.1,386.6z M-156,422.9c-14.3,0-25.9-11.6-25.9-26c0-11.5,7.3-21.2,17.7-24.6
	c-2.2,4.4-3.5,9.3-3.5,14.3c0,16.3,12.5,29.7,28.4,31C-144,420.9-150,422.9-156,422.9z"/>
<path id="XMLID_2_" class="st11" d="M-133.3,397.2l7.3-7.4c0.7-0.7,0.7-1.8,0-2.5s-1.8-0.7-2.4,0l-7.3,7.4c-0.7,0.7-0.7,1.8,0,2.5
	C-135.1,397.9-134,397.9-133.3,397.2z M-116.6,414.5h-15.5c0-11.6-9.3-21-20.7-21c-11.4,0-20.7,9.4-20.7,21h-15.6
	c-1,0-1.7,0.8-1.7,1.8s0.8,1.8,1.7,1.8h72.5c1,0,1.7-0.8,1.7-1.8C-114.8,415.3-115.6,414.5-116.6,414.5z M-170.1,414.5
	c0-9.7,7.7-17.5,17.3-17.5c9.6,0,17.3,7.8,17.3,17.5H-170.1z M-172.4,397.2c0.7,0.7,1.8,0.7,2.4,0c0.7-0.7,0.7-1.8,0-2.5l-7.3-7.4
	c-0.7-0.7-1.8-0.7-2.4,0c-0.7,0.7-0.7,1.8,0,2.5L-172.4,397.2z M-154.6,377.7v10.5c0,1,0.8,1.8,1.7,1.8c1,0,1.7-0.8,1.7-1.8v-10.5
	c0-1-0.8-1.8-1.7-1.8C-153.8,376-154.6,376.8-154.6,377.7z"/>
<path id="XMLID_14_" class="st11" d="M-170.1,381.9c0.6,0.6,1.6,0.6,2.2,0c0.6-0.6,0.6-1.6,0-2.2l-6.5-6.5c-0.6-0.6-1.6-0.6-2.2,0
	c-0.6,0.6-0.6,1.6,0,2.2L-170.1,381.9z M-135.6,381.9l6.5-6.5c0.6-0.6,0.6-1.6,0-2.2c-0.6-0.6-1.6-0.6-2.2,0l-6.5,6.5
	c-0.6,0.6-0.6,1.6,0,2.2C-137.2,382.5-136.2,382.5-135.6,381.9z M-174.2,397c0-0.8-0.7-1.5-1.5-1.5h-9.1c-0.8,0-1.5,0.7-1.5,1.5
	s0.7,1.5,1.5,1.5h9.1C-174.8,398.5-174.2,397.8-174.2,397z M-152.8,375.7c0.8,0,1.5-0.7,1.5-1.5V365c0-0.8-0.7-1.5-1.5-1.5
	c-0.8,0-1.5,0.7-1.5,1.5v9.1C-154.4,375-153.7,375.7-152.8,375.7z M-170.1,412.1l-6.5,6.5c-0.6,0.6-0.6,1.6,0,2.2
	c0.6,0.6,1.6,0.6,2.2,0l6.5-6.5c0.6-0.6,0.6-1.6,0-2.2C-168.5,411.5-169.5,411.5-170.1,412.1z M-135.6,412.1c-0.6-0.6-1.6-0.6-2.2,0
	c-0.6,0.6-0.6,1.6,0,2.2l6.5,6.5c0.6,0.6,1.6,0.6,2.2,0c0.6-0.6,0.6-1.6,0-2.2L-135.6,412.1z M-152.8,378.7
	c-10.1,0-18.3,8.2-18.3,18.3s8.2,18.3,18.3,18.3c10.1,0,18.3-8.2,18.3-18.3C-134.6,386.9-142.8,378.7-152.8,378.7z M-152.8,412.2
	c-8.4,0-15.2-6.8-15.2-15.2s6.8-15.2,15.2-15.2c8.4,0,15.2,6.8,15.2,15.2S-144.4,412.2-152.8,412.2z M-152.8,418.3
	c-0.8,0-1.5,0.7-1.5,1.5v9.1c0,0.8,0.7,1.5,1.5,1.5c0.8,0,1.5-0.7,1.5-1.5v-9.1C-151.3,419-152,418.3-152.8,418.3z M-120.9,395.5
	h-9.1c-0.8,0-1.5,0.7-1.5,1.5s0.7,1.5,1.5,1.5h9.1c0.8,0,1.5-0.7,1.5-1.5S-120,395.5-120.9,395.5z"/>
<path id="XMLID_25_" class="st11" d="M-131.6,408.2c0-8.8-9.6-8.8-9.6-21.3c0-5.2-3-9.6-7.3-11.5c0.1-0.3,0.1-0.7,0.1-1
	c0-2.8-2.1-5-4.8-5c-2.6,0-4.8,2.2-4.8,5c0,0.3,0,0.7,0.1,1c-4.1,2-7.1,6.4-7.1,11.6c0,12.5-9.6,12.5-9.6,21.3c0,3.8,6,7,14.4,8.2
	c0,0.2,0,0.3,0,0.5c0,4.1,3.2,7.5,7.2,7.5s7.2-3.4,7.2-7.5c0-0.2,0-0.3,0-0.5C-137.6,415.3-131.6,412.1-131.6,408.2z M-153.1,372
	c1.3,0,2.4,1.1,2.4,2.5s-1,2.5-2.4,2.5c-1.3,0-2.4-1.1-2.4-2.5S-154.4,372-153.1,372z M-168.7,401.5c2.7-3,6.1-6.6,6.1-14.5
	c0-4.2,2.5-7.8,5.9-9.3c0.9,1.1,2.2,1.8,3.6,1.8s2.7-0.7,3.6-1.8c3.5,1.5,5.9,5.1,5.9,9.3c0,7.8,3.4,11.5,6.1,14.5
	c0.5,0.6,1,1.1,1.4,1.6c-2.3,2.3-9,3.9-17.1,3.9c-8,0-14.8-1.7-17.1-3.9C-169.7,402.6-169.2,402-168.7,401.5z M-153.1,422
	c-2.6,0-4.8-2.2-4.8-5c0-0.1,0-0.1,0-0.2c1.5,0.1,3.1,0.2,4.8,0.2c1.6,0,3.2-0.1,4.8-0.2c0,0.1,0,0.1,0,0.2
	C-148.3,419.8-150.4,422-153.1,422z M-153.1,414.5c-12.4,0-19.1-4.1-19.1-6.3c0-1.3,0.3-2.4,0.8-3.4c3.3,2.7,10.2,4.6,18.3,4.6
	s15-1.9,18.3-4.6c0.5,1,0.8,2,0.8,3.4C-134,410.4-140.7,414.5-153.1,414.5z"/>
<path id="XMLID_31_" class="st11" d="M-136.9,391.8V384c0-8.6-6.9-15.5-15.4-15.5s-15.4,7-15.4,15.5v7.8c-2.8,0-5.1,2.3-5.1,5.2
	v23.3c0,2.9,2.3,5.2,5.1,5.2h30.8c2.8,0,5.1-2.3,5.1-5.2V397C-131.8,394.1-134.1,391.8-136.9,391.8z M-165.1,384
	c0-7.2,5.7-13,12.8-13c7.1,0,12.8,5.8,12.8,13v7.8h-25.6V384z M-134.4,420.3c0,1.4-1.1,2.6-2.6,2.6h-30.7c-1.4,0-2.6-1.2-2.6-2.6
	V397c0-1.4,1.1-2.6,2.6-2.6h28.2h2.6c1.4,0,2.6,1.2,2.6,2.6v23.3H-134.4z M-152.3,402.2c-2.8,0-5.1,2.3-5.1,5.2
	c0,1.3,0.5,2.5,1.3,3.4c0,0.1,0,0.3,0,0.4c0,2.1,1.7,3.9,3.8,3.9c2.1,0,3.8-1.7,3.8-3.9c0-0.1,0-0.3,0-0.4c0.8-0.9,1.3-2.1,1.3-3.4
	C-147.2,404.5-149.5,402.2-152.3,402.2z M-151,409.6v1.7c0,0.7-0.6,1.3-1.3,1.3c-0.7,0-1.3-0.6-1.3-1.3v-1.7
	c-0.8-0.4-1.3-1.3-1.3-2.2c0-1.4,1.1-2.6,2.6-2.6c1.4,0,2.6,1.2,2.6,2.6C-149.8,408.3-150.3,409.1-151,409.6z"/>
<path id="XMLID_37_" class="st11" d="M-153.2,369.7c-15.5,0-28,12.5-28,28s12.5,28,28,28s28-12.5,28-28
	C-125.2,382.3-137.8,369.7-153.2,369.7z M-153.2,423.2c-14.1,0-25.5-11.4-25.5-25.5c0-6.6,2.5-12.5,6.6-17.1l35.9,35.9
	C-140.7,420.7-146.7,423.2-153.2,423.2z M-134.4,414.8l-35.9-35.9c4.5-4.1,10.5-6.6,17.1-6.6c14.1,0,25.5,11.4,25.5,25.5
	C-127.8,404.3-130.3,410.3-134.4,414.8z"/>
<path id="XMLID_41_" class="st11" d="M-151.3,408.2c-0.8,0-1.3-0.1-1.6-0.4c-0.3-0.2-0.5-0.7-0.5-1.4c0-0.3,0-0.7,0.1-1.2
	c0.1-0.5,0.2-1,0.3-1.4l1.5-5.2c0.1-0.5,0.2-1,0.3-1.6c0.1-0.6,0.1-1,0.1-1.2c0-1.1-0.4-2-1.2-2.7c-0.8-0.7-1.9-1-3.4-1
	c-0.8,0-1.7,0.1-2.6,0.4c-0.9,0.3-1.8,0.6-2.8,1l-0.4,1.6c0.3-0.1,0.6-0.2,1.1-0.3c0.4-0.1,0.8-0.2,1.2-0.2c0.8,0,1.3,0.1,1.6,0.4
	c0.3,0.3,0.4,0.7,0.4,1.4c0,0.4,0,0.8-0.1,1.2c-0.1,0.4-0.2,0.9-0.3,1.4l-1.5,5.2c-0.1,0.5-0.2,1-0.3,1.5c-0.1,0.4-0.1,0.9-0.1,1.3
	c0,1.1,0.4,1.9,1.2,2.6c0.8,0.7,1.9,1,3.4,1c1,0,1.8-0.1,2.5-0.4c0.7-0.2,1.7-0.6,2.9-1.1l0.4-1.6c-0.2,0.1-0.5,0.2-1,0.3
	C-150.5,408.2-150.9,408.2-151.3,408.2z M-152.2,382.7c-1,0-1.8,0.3-2.5,1c-0.7,0.6-1.1,1.4-1.1,2.3s0.4,1.7,1.1,2.3
	c0.7,0.6,1.6,1,2.5,1c1,0,1.8-0.3,2.5-1c0.7-0.6,1.1-1.4,1.1-2.3s-0.4-1.7-1.1-2.3C-150.4,383-151.2,382.7-152.2,382.7z M-155,368.7
	c-15.5,0-28,12.5-28,28s12.5,28,28,28s28-12.5,28-28C-127,381.3-139.5,368.7-155,368.7z M-155,422.2c-14.1,0-25.5-11.4-25.5-25.5
	c0-14.1,11.4-25.4,25.5-25.4s25.5,11.4,25.5,25.5C-129.5,410.9-140.9,422.2-155,422.2z"/>
<g id="XMLID_46_" class="st10">
	<g id="XMLID_95_" class="st8">
		<path id="XMLID_96_" class="st3" d="M-166.3,372.9l-19.6,44.8l3,0.4l5-11.6h23.8l5,11.6l2.9-0.4l-19.5-44.8H-166.3z M-176.7,403.8
			l10.6-24.6h0.2l10.6,24.6H-176.7z M-125.2,390.8h-1.6l-11.7,26.9l3.3,0.2l2.7-6.2h13.1l2.7,6.2l3.3-0.2L-125.2,390.8z
			 M-131.5,409.1l5.4-12.9h0.1l5.5,12.9H-131.5z"/>
	</g>
</g>
<path id="XMLID_52_" class="st11" d="M-156,369c-15.5,0-28,12.5-28,28s12.5,28,28,28s28-12.5,28-28S-140.5,369-156,369z
	 M-138.2,388.1l-23.4,23.8c-0.1,0.1-0.3,0.1-0.4,0.1c-0.2,0-0.3-0.1-0.4-0.2l-12.4-12.5c-0.2-0.2-0.2-0.4-0.2-0.6
	c0.1-0.2,0.3-0.4,0.5-0.4h5c0.2,0,0.3,0.1,0.4,0.2l6.9,7l18-18.3c0.1-0.1,0.3-0.2,0.4-0.2h5c0.2,0,0.5,0.1,0.5,0.4
	C-138,387.6-138,387.9-138.2,388.1z"/>
<path id="XMLID_55_" class="st11" d="M-156.3,369c-15.5,0-28,12.5-28,28s12.5,28,28,28s28-12.5,28-28S-140.9,369-156.3,369z
	 M-141.7,411.7c-0.6,0.6-1.6,0.6-2.2,0l-12-12.1l-12.1,12.1c-0.6,0.6-1.6,0.6-2.2,0c-0.6-0.6-0.6-1.6,0-2.2l12.1-12.1l-12.1-12.1
	c-0.6-0.6-0.6-1.6,0-2.2c0.6-0.6,1.6-0.6,2.2,0l12.1,12.1l12.1-12.1c0.6-0.6,1.6-0.6,2.2,0c0.6,0.6,0.6,1.6,0,2.2l-12.2,12.1
	l12.1,12.1C-141.1,410.1-141.1,411.1-141.7,411.7z"/>
<path id="XMLID_47_" class="st11" d="M-134.4,400.9c-0.7,0-1.2,0.6-1.2,1.2c0,11-9,20-20,20s-20-9-20-20s9-20,20-20h8.3l-7.7,7.7
	l0,0c-0.3,0.2-0.6,0.6-0.6,1c0,0.7,0.6,1.2,1.2,1.2c0.3,0,0.5-0.1,0.7-0.2l0,0l0.1-0.1c0.1-0.1,0.1-0.1,0.2-0.2l9.7-9.7l0,0
	c0.3-0.2,0.6-0.6,0.6-1c0-0.4-0.2-0.8-0.6-1l0,0l-9.7-9.7c-0.1-0.1-0.1-0.1-0.2-0.2l-0.1-0.1l0,0c-0.2-0.1-0.4-0.2-0.7-0.2
	c-0.7,0-1.2,0.6-1.2,1.2c0,0.4,0.2,0.8,0.6,1l0,0l7.7,7.7h-8.3c-12.4,0-22.5,10.1-22.5,22.5s10.1,22.5,22.5,22.5
	s22.5-10.1,22.5-22.5C-133.1,401.4-133.7,400.9-134.4,400.9z"/>
<path id="XMLID_50_" class="st6" d="M-180.1,368.1h47.8c4.2,0,7.6,3.4,7.6,7.6v31.1c0,4.2-3.4,7.6-7.6,7.6h-15.8l-14.4,14.6v-14.5
	H-180c-4.2,0-7.6-3.4-7.6-7.6v-31.2C-187.8,371.5-184.3,368.1-180.1,368.1z"/>
<g id="XMLID_1_" class="st10">
	<path id="XMLID_71_" class="st5" d="M-167.2,389.1c2.2,0,4,1.8,4,4c0,2.2-1.8,4-4,4c-2.2,0-4-1.8-4-4
		C-171.2,390.9-169.4,389.1-167.2,389.1z"/>
	<path id="XMLID_69_" class="st5" d="M-155.2,389.1c2.2,0,4,1.8,4,4c0,2.2-1.8,4-4,4c-2.2,0-4-1.8-4-4
		C-159.2,390.9-157.4,389.1-155.2,389.1z"/>
	<path id="XMLID_67_" class="st5" d="M-143.2,389.1c2.2,0,4,1.8,4,4c0,2.2-1.8,4-4,4c-2.2,0-4-1.8-4-4
		C-147.2,390.9-145.4,389.1-143.2,389.1z"/>
	<path id="XMLID_65_" class="st5" d="M-179.6,369.1h47.8c4.2,0,7.6,3.4,7.6,7.6v31.1c0,4.2-3.4,7.6-7.6,7.6h-15.8l-14.4,14.7v-14.6
		h-17.5c-4.2,0-7.6-3.4-7.6-7.6v-31.2C-187.3,372.5-183.8,369.1-179.6,369.1z"/>
</g>
<g id="XMLID_144_" class="st10">
	<path id="XMLID_145_" class="st5" d="M-180.6,369.1h47.8c4.2,0,7.6,3.4,7.6,7.6v31.1c0,4.2-3.4,7.6-7.6,7.6h-15.8l-14.4,14.7v-14.6
		h-17.5c-4.2,0-7.6-3.4-7.6-7.6v-31.2C-188.3,372.5-184.8,369.1-180.6,369.1z"/>
	<path id="XMLID_166_" class="st1" d="M-169.1,396.6h10.1v10.1h6v-10.1h10.1v-6h-10v-10.2h-6v10.1h-10.2V396.6L-169.1,396.6z"/>
</g>
<g id="XMLID_73_" class="st10">
	<g id="XMLID_74_" class="st8">
		<g id="XMLID_195_">
			<circle id="XMLID_196_" class="st7" cx="-156.6" cy="396.6" r="30"/>
		</g>
	</g>
	<path id="XMLID_76_" class="st1" d="M-142.3,411.8c-0.6,0.6-1.6,0.6-2.2,0l-12.1-12.1l-12.1,12.1c-0.6,0.6-1.6,0.6-2.2,0
		c-0.6-0.6-0.6-1.6,0-2.2l12.1-12.1l-12-12c-0.6-0.6-0.6-1.6,0-2.2c0.6-0.6,1.6-0.6,2.2,0l12.1,12.1l12.1-12.1
		c0.6-0.6,1.6-0.6,2.2,0c0.6,0.6,0.6,1.6,0,2.2l-12.2,12.1l12.1,12.1C-141.7,410.3-141.7,411.2-142.3,411.8z"/>
</g>
<g id="XMLID_126_" class="st10">
	<g id="XMLID_146_" class="st8">
		<g id="XMLID_213_">
			<circle id="XMLID_214_" class="st7" cx="-154.6" cy="396.6" r="30"/>
		</g>
	</g>
	<path id="XMLID_164_" class="st1" d="M-167.1,400.6h10.1v10.1h6v-10.1h10.1v-6h-10v-10.2h-6v10.1h-10.2V400.6L-167.1,400.6z"/>
</g>
<g id="XMLID_147_" class="st10">
	<g id="XMLID_193_" class="st8">
		<g id="XMLID_216_">
			<circle id="XMLID_217_" class="st7" cx="-154.5" cy="397.6" r="30"/>
		</g>
	</g>
	<path id="XMLID_198_" class="st1" d="M-151.1,383.1l-1.1,21.7h-4.6l-1.1-21.7H-151.1z M-154.4,414.9c-2.2,0-3.9-1.7-3.9-3.9
		s1.7-3.9,3.9-3.9c2.2,0,3.9,1.7,3.9,3.9C-150.6,413.2-152.3,414.9-154.4,414.9z"/>
</g>
<g id="XMLID_79_" class="st10">
	<g id="XMLID_82_" class="st8">
		<g id="XMLID_219_">
			<circle id="XMLID_220_" class="st7" cx="-157.3" cy="396.6" r="30"/>
		</g>
	</g>
	<path id="XMLID_80_" class="st1" d="M-138.4,387.1l-23.5,23.8c-0.1,0.1-0.3,0.2-0.4,0.2c-0.2,0-0.3-0.1-0.4-0.2l-12.4-12.6
		c-0.2-0.2-0.2-0.4-0.1-0.6c0.1-0.2,0.3-0.4,0.5-0.4h5c0.2,0,0.3,0.1,0.4,0.2l6.9,7l18-18.3c0.1-0.1,0.3-0.2,0.4-0.2h5
		c0.2,0,0.5,0.1,0.5,0.4C-138.2,386.7-138.2,386.9-138.4,387.1z"/>
</g>
<path id="XMLID_84_" class="st11" d="M-157.3,367.6c-16.2,0-29.4,13.2-29.4,29.4s13.2,29.4,29.4,29.4c16.2,0,29.4-13.2,29.4-29.4
	S-141,367.6-157.3,367.6z M-157.3,423.7c-14.7,0-26.7-12-26.7-26.7c0-14.8,12-26.7,26.7-26.7c14.8,0,26.7,12,26.7,26.7
	S-142.5,423.7-157.3,423.7z M-144.4,396L-144.4,396l-0.2-0.1c0,0-0.1,0-0.1-0.1l-18.4-10.5l0,0c-0.2-0.2-0.5-0.3-0.8-0.3
	c-0.7,0-1.3,0.6-1.3,1.3v21.4c0,0.7,0.6,1.3,1.3,1.3c0.3,0,0.6-0.1,0.8-0.3l0,0l18.4-10.5c0,0,0.1,0,0.1-0.1l0.2-0.1l0,0
	c0.3-0.2,0.5-0.6,0.5-1S-144.1,396.2-144.4,396z"/>
<g id="XMLID_83_" class="st10">
	<path id="XMLID_109_" class="st5" d="M-157,365.6c18.8,0,34,15,34,33.5s-15.2,33.5-34,33.5s-34-15-34-33.5S-175.8,365.6-157,365.6z
		"/>
	<polygon id="XMLID_111_" class="st1" points="-144.7,396.9 -159.6,382.7 -162.1,385 -149,397.6 -162.1,410.2 -159.6,412.6 
		-144.7,398.3 -145.5,397.6 	"/>
</g>
<g id="XMLID_93_" class="st10">
	<path id="XMLID_115_" class="st5" d="M-157.2,432c-18.8,0-34-15-34-33.5s15.2-33.5,34-33.5c18.8,0,34,15,34,33.5
		S-138.4,432-157.2,432z"/>
	<polygon id="XMLID_94_" class="st1" points="-169.5,400.6 -154.6,414.9 -152.1,412.5 -165.3,399.9 -152.1,387.4 -154.6,385 
		-169.5,399.2 -168.8,399.9 	"/>
</g>
<g id="XMLID_121_" class="st10">
	<path id="XMLID_123_" class="st5" d="M-190,397.6c0-18.8,15-34,33.5-34s33.5,15.2,33.5,34c0,18.8-15,34-33.5,34
		S-190,416.4-190,397.6z"/>
	<polygon id="XMLID_122_" class="st1" points="-158.6,385.3 -172.9,400.2 -170.5,402.7 -157.9,389.6 -145.3,402.7 -143,400.2 
		-157.2,385.3 -157.9,386.1 	"/>
</g>
<g id="XMLID_117_" class="st10">
	<path id="XMLID_119_" class="st5" d="M-123,397.6c0,18.8-15,34-33.5,34s-33.5-15.2-33.5-34c0-18.8,15-34,33.5-34
		S-123,378.8-123,397.6z"/>
	<polygon id="XMLID_118_" class="st1" points="-154.4,409.9 -140.1,395 -142.5,392.6 -155.1,405.7 -167.6,392.6 -170,395 
		-155.8,409.9 -155.1,409.2 	"/>
</g>
<path id="XMLID_129_" class="st11" d="M-156.7,364.6c-18.5,0-33.5,15-33.5,33.5s15,33.5,33.5,33.5s33.5-15,33.5-33.5
	S-138.2,364.6-156.7,364.6z M-158.1,414.1c-2.3,0-4.2-1.9-4.2-4.2c0-2.3,1.9-4.2,4.2-4.2c2.3,0,4.2,1.9,4.2,4.2
	C-153.9,412.2-155.8,414.1-158.1,414.1z M-154.8,398.7l-0.9,4.5h-4.9l-1-6.9c3-1.4,6.6-3.9,6.6-6.7c0-2.8-1.3-3.8-3.2-3.8
	c-1.9,0-3.6,0.7-5.8,2.1l-2.8-5.7c3.2-2,6.2-2.8,9.6-2.8c5.1,0,10.1,2.5,10.1,8.5C-147.1,393.2-150.8,396.6-154.8,398.7z"/>
<path id="XMLID_132_" class="st11" d="M-155.8,365.9c-18.1,0-32.8,14.7-32.8,32.8c0,18.1,14.7,32.8,32.8,32.8
	c18.1,0,32.8-14.7,32.8-32.8C-123,380.6-137.7,365.9-155.8,365.9z M-152.5,383.2l-1.1,21.7h-4.6l-1.1-21.7H-152.5z M-155.8,415.1
	c-2.2,0-3.9-1.7-3.9-3.9s1.7-3.9,3.9-3.9c2.2,0,3.9,1.7,3.9,3.9C-152,413.3-153.7,415.1-155.8,415.1z"/>
<g id="XMLID_138_" class="st10">
	<path id="XMLID_134_" class="st0" d="M-160.6,367c-14.7,0-26.6,11.9-26.6,26.6c0,14.7,11.9,26.6,26.6,26.6
		c14.7,0,26.6-11.9,26.6-26.6C-134,378.9-145.9,367-160.6,367z"/>
	<path id="XMLID_136_" class="st1" d="M-125.4,429l-15-15c-0.7-0.7-1.8-0.7-2.5,0c-0.7,0.7-0.7,1.8,0,2.5l15,15
		c0.7,0.7,1.8,0.7,2.5,0C-124.7,430.8-124.7,429.7-125.4,429z"/>
</g>
<path id="XMLID_152_" class="st11" d="M-156.2,414c0.6,0,1-0.4,1-1v-24c0-0.6-0.4-1-1-1c-0.6,0-1,0.4-1,1v24
	C-157.2,413.6-156.8,414-156.2,414z M-150.2,414c0.6,0,1-0.4,1-1l1.5-24c0-0.6-0.4-1-1-1c-0.6,0-1,0.4-1,1l-1.5,24
	C-151.2,413.5-150.8,414-150.2,414z M-139.2,382h-10v-4c0-1.1-0.9-2-2-2h-10c-1.1,0-2,0.9-2,2v4h-10c-0.6,0-1,0.4-1,1s0.4,1,1,1h2
	l2,32c0.3,2.2,1.8,4,4,4h18c2.2,0,3.6-1.8,4-4l2-32h2c0.6,0,1-0.4,1-1S-138.7,382-139.2,382z M-161.2,378h10v4h-10V378z M-145.2,416
	c-0.1,1.1-0.9,2-2,2h-18c-1.1,0-1.8-0.9-2-2l-2-32h26L-145.2,416z M-162.2,414c0.6,0,1-0.5,1-1l-1.5-24c0-0.6-0.5-1-1-1
	c-0.6,0-1,0.5-1,1l1.5,24C-163.2,413.6-162.7,414-162.2,414z"/>
<path id="XMLID_159_" class="st11" d="M-156.5,370.8c-15.3,0-27.7,12.4-27.7,27.7s12.4,27.7,27.7,27.7s27.7-12.4,27.7-27.7
	S-141.2,370.8-156.5,370.8z M-156.5,423.6c-13.9,0-25.1-11.3-25.1-25.1s11.3-25.1,25.1-25.1c13.9,0,25.1,11.3,25.1,25.1
	S-142.6,423.6-156.5,423.6z M-145.2,397.2h-6.5c-0.5-1.8-1.8-3.1-3.6-3.6v-14c0-0.7-0.6-1.3-1.3-1.3c-0.7,0-1.3,0.6-1.3,1.3v14
	c-2.2,0.6-3.8,2.5-3.8,4.9c0,2.8,2.3,5,5,5c2.3,0,4.3-1.6,4.9-3.8h6.5c0.7,0,1.3-0.6,1.3-1.3C-143.9,397.8-144.5,397.2-145.2,397.2z
	 M-156.5,401c-1.4,0-2.5-1.1-2.5-2.5s1.1-2.5,2.5-2.5s2.5,1.1,2.5,2.5S-155.1,401-156.5,401z"/>
<path id="XMLID_148_" class="st11" d="M-159.6,419.4h-11.1c-0.8,0-1.4,0.6-1.4,1.4s0.6,1.4,1.4,1.4h11.1c0.8,0,1.4-0.6,1.4-1.4
	C-158.2,420.1-158.8,419.4-159.6,419.4z M-154,411.1h-16.7c-0.8,0-1.4,0.6-1.4,1.4s0.6,1.4,1.4,1.4h16.7c0.8,0,1.4-0.6,1.4-1.4
	S-153.3,411.1-154,411.1z M-170.7,397.3h5.6c0.8,0,1.4-0.6,1.4-1.4c0-0.8-0.6-1.4-1.4-1.4h-5.6c-0.8,0-1.4,0.6-1.4,1.4
	C-172.1,396.6-171.5,397.3-170.7,397.3z M-172.1,404.2c0,0.8,0.6,1.4,1.4,1.4h16.7c0.8,0,1.4-0.6,1.4-1.4s-0.6-1.4-1.4-1.4h-16.7
	C-171.5,402.8-172.1,403.4-172.1,404.2z M-140.1,369.5H-161c-3.1,0-5.6,2.5-5.6,5.5v4.2c0,0.8,0.6,1.4,1.4,1.4
	c0.8,0,1.4-0.6,1.4-1.4V375c0-1.5,1.2-2.8,2.8-2.8h16.7v8.3c0,1.5,1.2,2.8,2.8,2.8h8.3V411c0,1.5-1.2,2.8-2.8,2.8h-4.2
	c-0.8,0-1.4,0.6-1.4,1.4s0.6,1.4,1.4,1.4h4.2c3.1,0,5.6-2.5,5.6-5.5v-30.5L-140.1,369.5z M-141.5,380.6v-8.1l7.2,8.1H-141.5z
	 M-174.9,383.4c-3.1,0-5.6,2.5-5.6,5.5v36c0,3.1,2.5,5.5,5.6,5.5h25c3.1,0,5.6-2.5,5.6-5.5v-30.4l-9.7-11.1H-174.9z M-147.1,425
	c0,1.5-1.2,2.8-2.8,2.8h-25c-1.5,0-2.8-1.2-2.8-2.8v-36c0-1.5,1.2-2.8,2.8-2.8h16.7v8.3c0,1.5,1.2,2.8,2.8,2.8h8.3V425z
	 M-155.4,394.5v-8.1l7.2,8.1H-155.4z"/>
<path id="XMLID_179_" class="st11" d="M-165.9,405l8.5-1.5l23-23c0.9-0.9,1.5-2.2,1.5-3.5c0-2.8-2.2-5-5-5c-1.4,0-2.6,0.6-3.5,1.5
	l-23,23L-165.9,405z M-140.1,374.9c0.5-0.5,1.3-0.9,2.1-0.9c1.7,0,3,1.3,3,3c0,0.8-0.3,1.6-0.9,2.1l-1.3,1.3l-4.2-4.2L-140.1,374.9z
	 M-142.8,377.6l4.2,4.2l-18.3,18.4V398v-2h-2h-2.2L-142.8,377.6z M-162.7,398h3.7v3.7l-4.5,0.8L-162.7,398z M-133.9,387
	c-0.6,0-1,0.4-1,1v22c0,2.2-1.8,4-4,4h-32c-2.2,0-4-1.8-4-4v-32c0-2.2,1.8-4,4-4h22c0.6,0,1-0.4,1-1s-0.4-1-1-1h-22
	c-3.3,0-6,2.7-6,6v32c0,3.3,2.7,6,6,6h32c3.3,0,6-2.7,6-6v-22C-132.9,387.4-133.4,387-133.9,387z"/>
<path id="XMLID_185_" class="st11" d="M-156.7,391.2c-2,0-3.7,1.6-3.7,3.6s1.6,3.6,3.7,3.6c2,0,3.7-1.6,3.7-3.6
	C-153.1,392.9-154.7,391.2-156.7,391.2z M-156.7,382.7c-6.8,0-12.3,5.4-12.3,12.1c0,6.8,5.5,12.2,12.3,12.2
	c6.8,0,12.3-5.4,12.3-12.1C-144.5,388.2-150,382.7-156.7,382.7z M-156.7,404.6c-5.4,0-9.8-4.3-9.8-9.7c0-5.4,4.4-9.7,9.8-9.7
	c5.4,0,9.8,4.3,9.8,9.7C-146.9,400.2-151.3,404.6-156.7,404.6z M-156.7,377.9c-14.9,0-27,12.1-27,17c0,4.9,12.1,17,27,17
	c14.9,0,27-12.1,27-17C-129.7,390-141.8,377.9-156.7,377.9z M-156.7,409.4c-13.6,0-24.5-10.4-24.5-14.6s11-14.6,24.5-14.6
	c13.6,0,24.5,10.4,24.5,14.6S-143.2,409.4-156.7,409.4z"/>
<g>
	<path id="XMLID_114_" class="st4" d="M101.2,64.3c0-0.4-0.2-0.8-0.6-1l0,0l-9.7-9.8c-0.1-0.1-0.1-0.1-0.2-0.2l-0.1-0.1l0,0
		c-0.2-0.1-0.4-0.2-0.7-0.2c-0.7,0-1.3,0.6-1.3,1.2c0,0.4,0.2,0.8,0.6,1l0,0l7.7,7.7h-8.3c-12.4,0-22.5,10-22.6,22.4
		c0,0.1,0,0.2,0,0.2l0,0c0,0.1,0,0.2,0,0.3c0,0.7,0.6,1.3,1.2,1.3c0.7,0,1.3-0.6,1.3-1.2c0-0.4,0-0.8,0.1-1.2l0,0
		c0.4-10.7,9.2-19.3,20-19.2h8.3l-7.7,7.7l0,0c-0.3,0.2-0.6,0.6-0.6,1c0,0.7,0.6,1.3,1.2,1.3c0.3,0,0.5-0.1,0.7-0.2l0,0l0.1-0.1
		c0.1-0.1,0.1-0.1,0.2-0.2l9.8-9.7l0,0C101,65.1,101.2,64.7,101.2,64.3z"/>
	<path id="XMLID_89_" class="st4" d="M80.8,53h-28c-3.3,0-6,2.7-6,6v32c0,3.3,2.7,6,6,6h32c3.3,0,6-2.7,6-6v-9c0-0.6-0.4-1-1-1
		c-0.6,0-1,0.4-1,1v9c0,2.2-1.8,4-4,4h-32c-2.2,0-4-1.8-4-4V59c0-2.2,1.8-4,4-4h28c0.6,0,1-0.4,1-1S81.3,53,80.8,53z"/>
</g>
</svg>
