<svg id="Layer_1" data-name="Layer 1" xmlns="http://www.w3.org/2000/svg" viewBox="0 0 842.89 596.28"><defs><style>.cls-1{fill:none;stroke:#fff;stroke-miterlimit:10;}.cls-2{fill:#866c51;}</style></defs><title>Logotipo - CopaStar - SVG</title><rect class="cls-1" x="0.5" y="0.5" width="841.89" height="595.28"/><rect class="cls-2" x="78.45" y="325.48" width="685.24" height="2.33"/><path class="cls-2" d="M130.54,269H146v2.8q0,17-6.2,22t-27.42,5q-24.09,0-29.63-7.87t-5.54-42.09q0-20.15,7.51-26.5T116.18,216q17.4,0,23.25,5.22t5.84,20.71l.06,1.85h-15.5v-2.08q0-8-3-10.22t-13.74-2.24q-14.37,0-17.26,3.52t-2.89,20.86q0,23.37,2.59,27.66t16.78,4.3q11.5,0,14.94-2.39t3.43-10.49Z" transform="translate(0.5 0.5)"/><path class="cls-2" d="M213,216q22.18,0,28.55,7.36t6.38,32.94q0,28-6.41,35.23t-31,7.27q-22.18,0-28.67-7.18T175.32,260q0-29.09,6.38-36.54T213,216Zm-1.19,13.23q-15.56,0-18.18,4T191,260.87q0,17.53,3.07,21.1t18.09,3.58q14.37,0,17.23-4t2.86-24.41q0-20.45-2.71-24.17T211.81,229.21Z" transform="translate(0.5 0.5)"/><path class="cls-2" d="M280.33,298.06V216.69h36.84q16.51,0,22.27,5.75t5.75,22.21q0,16.33-5.49,21.7t-22.17,5.36l-3.58.06H295.77v26.29Zm15.44-39.28h17.58q10.49,0,13.32-2.41t2.83-11.42q0-10.31-2.36-12.79t-12.25-2.47H295.77Z" transform="translate(0.5 0.5)"/><path class="cls-2" d="M422.18,282.44H387.07L382,298.06H365.67l27.06-81.37h23.19l27.48,81.37h-16Zm-3.57-11.38-14.07-42.39-13.83,42.39Z" transform="translate(0.5 0.5)"/><path class="cls-2" d="M523.47,212.59h-.52c-9.67,0-17.13,7.27-22.17,21.67L490,273.53c-4.58,13.75-11.08,20.72-19.3,20.72h-1l1.34,5.66h.76c9.67,0,17.17-7.32,22.3-21.8q5.49-19.91,10.85-39.76c4.56-13.75,11-20.73,19.42-20.73h1.11l-1.74-4.57Z" transform="translate(0.5 0.5)"/><polygon class="cls-2" points="556.22 219.85 576.12 219.85 576.12 299.32 581.78 299.32 581.78 219.85 602.3 219.85 602.3 214.19 556.22 214.19 556.22 219.85"/><polygon class="cls-2" points="621.78 298.29 621.39 299.32 627.77 299.32 655.57 225.74 676.11 279.91 676.81 279.64 676.81 279.76 676.11 280.03 683.38 299.32 689.75 299.32 655.57 210.27 621.78 298.29"/><path class="cls-2" d="M756.5,263.85A29.72,29.72,0,0,0,735,213.69h-9.54v85.13h5.66v-25l23.21,26.56.49.56,4.45-3.79L738.1,272.94A28.66,28.66,0,0,0,756.5,263.85Zm-25.43-44.5H735a24,24,0,0,1,0,48h-3.88Z" transform="translate(0.5 0.5)"/><polygon class="cls-2" points="462.64 235.48 465.66 244.8 475.46 244.8 467.53 250.56 470.56 259.88 462.64 254.11 454.71 259.88 457.73 250.56 449.81 244.8 459.61 244.8 462.64 235.48"/><path class="cls-2" d="M215.81,368.7c.83-1.26,1.23-3.34,1.23-6.37,0-3.44-.76-5.91-2.26-7.36s-4-2.17-7.52-2.17H191.8v32.39h4.89V372.63h11c2.73,0,4,1.5,4,4.73v7.83h4.89v-8.62c0-3.5-1.38-5.24-3.07-6.06A5.06,5.06,0,0,0,215.81,368.7Zm-3.51-5.51c0,2-.41,3.38-1.2,4-.58.48-1.91,1.05-5,1.05h-9.41V357.15H207.3c2.66,0,3.69.56,4.09,1S212.31,359.93,212.31,363.19Z" transform="translate(0.5 0.5)"/><polygon class="cls-2" points="254.56 385.69 275.86 385.69 275.86 381.35 259.45 381.35 259.45 371.16 275.18 371.16 275.18 366.81 259.45 366.81 259.45 357.65 275.86 357.65 275.86 353.3 254.56 353.3 254.56 385.69"/><path class="cls-2" d="M327.54,352.8h-15v32.39h15.93c4.43,0,7.45-1.25,9-3.71s2.21-6.91,2.21-13.83c0-5.74-.82-9.55-2.52-11.65S332.17,352.8,327.54,352.8Zm-10.16,4.35h10.11c3.25,0,5.3.64,6.09,1.92.59.95,1.29,3.51,1.29,10.33,0,6.18-.8,8.58-1.48,9.51-.93,1.29-3.15,1.94-6.61,1.94h-9.41Z" transform="translate(0.5 0.5)"/><polygon class="cls-2" points="376.83 385.69 398.13 385.69 398.13 381.35 381.72 381.35 381.72 371.16 397.45 371.16 397.45 366.81 381.72 366.81 381.72 357.65 398.13 357.65 398.13 353.3 376.83 353.3 376.83 385.69"/><path class="cls-2" d="M498.09,352.8H483v32.39H499c4.43,0,7.45-1.25,9-3.71s2.2-6.91,2.2-13.83c0-5.74-.82-9.55-2.52-11.65S502.72,352.8,498.09,352.8Zm-10.16,4.35H498c3.25,0,5.3.64,6.09,1.92.59.95,1.29,3.51,1.29,10.33,0,6.18-.8,8.58-1.48,9.51-.93,1.29-3.15,1.94-6.61,1.94h-9.41Z" transform="translate(0.5 0.5)"/><path class="cls-2" d="M517.85,358.37h1.5v.1c0,.88-.36,1.25-1.29,1.3l-.66,0v3.05l.64.05c.42,0,.73,0,.92,0,1.73,0,3.79-.86,3.79-4.94V352.8h-4.89Z" transform="translate(0.5 0.5)"/><path class="cls-2" d="M573.1,352.48c-5.28,0-8.82.79-10.83,2.42s-3,4.65-3,9l0,5.12c0,7.37.75,11.86,2.31,13.71s5.38,2.81,11.6,2.81,10.06-.93,11.62-2.84,2.27-6.48,2.27-14.09c0-7.08-.77-11.42-2.37-13.28S579.22,352.48,573.1,352.48Zm0,4.35c5.08,0,7,.67,7.69,1.23s1.47,2,1.47,6l0,4.95c0,8.15-.69,10.28-1.11,10.81s-2,1.36-8.07,1.36-7.66-.85-8.05-1.36-1.11-2.66-1.11-10.81.69-10.25,1.11-10.79S567,356.83,573.08,356.83Z" transform="translate(0.5 0.5)"/><path class="cls-2" d="M645.83,370.51a5.07,5.07,0,0,0,2.27-1.81c.82-1.26,1.23-3.34,1.23-6.37,0-3.44-.76-5.91-2.25-7.36s-4-2.17-7.52-2.17H624.09v32.39H629V372.63h11c2.73,0,4,1.5,4,4.73v7.83h4.89v-8.62C648.9,373.07,647.52,371.33,645.83,370.51Zm-1.24-7.32c0,2-.41,3.38-1.2,4-.57.48-1.91,1.05-5,1.05H629V357.15H639.6c2.66,0,3.69.56,4.09,1S644.6,359.93,644.6,363.19Z" transform="translate(0.5 0.5)"/></svg>